<svg width="11" height="12" viewBox="0 0 11 12" fill="none" xmlns="http://www.w3.org/2000/svg">
<path d="M9.9 6.02069C9.9 4.8106 9.43643 3.65007 8.61127 2.79441C7.78611 1.93875 6.66695 1.45804 5.5 1.45804C4.33305 1.45804 3.21389 1.93875 2.38873 2.79441C1.56357 3.65007 1.1 4.8106 1.1 6.02069C1.1 7.23078 1.56357 8.39131 2.38873 9.24697C3.21389 10.1026 4.33305 10.5833 5.5 10.5833C6.66695 10.5833 7.78611 10.1026 8.61127 9.24697C9.43643 8.39131 9.9 7.23078 9.9 6.02069ZM5.5 0.317383C8.53765 0.317383 11 2.87075 11 6.02069C11 9.17063 8.53765 11.724 5.5 11.724C2.46235 11.724 0 9.17063 0 6.02069C0 2.87075 2.46235 0.317383 5.5 0.317383ZM5.1055 5.45036C5.78648 5.45036 6.13386 4.63277 5.66115 4.14259C5.56096 4.03503 5.50553 3.89096 5.50678 3.74142C5.50803 3.59188 5.56588 3.44884 5.66785 3.34309C5.76982 3.23735 5.90777 3.17737 6.05198 3.17607C6.19619 3.17477 6.33512 3.23225 6.43885 3.33614L8.63885 5.61747C8.74196 5.72442 8.79988 5.86946 8.79988 6.02069C8.79988 6.17192 8.74196 6.31696 8.63885 6.42391L6.43885 8.70524C6.33512 8.80913 6.19619 8.86661 6.05198 8.86531C5.90777 8.86402 5.76982 8.80403 5.66785 8.69829C5.56588 8.59255 5.50803 8.4495 5.50678 8.29996C5.50553 8.15042 5.56096 8.00636 5.66115 7.89879C6.13386 7.40861 5.78648 6.59102 5.1055 6.59102H2.75C2.60413 6.59102 2.46424 6.53093 2.36109 6.42397C2.25795 6.31702 2.2 6.17195 2.2 6.02069C2.2 5.86943 2.25795 5.72436 2.36109 5.61741C2.46424 5.51045 2.60413 5.45036 2.75 5.45036H5.1055Z" fill="#0D99FF"/>
</svg>
