<svg width="37" height="37" viewBox="0 0 37 37" fill="none" xmlns="http://www.w3.org/2000/svg">
<path d="M18.4999 27.75L11.4584 17.8062C10.3058 16.4454 9.56356 14.7851 9.3181 13.0188C9.07264 11.2524 9.33406 9.45268 10.0719 7.82915C10.8098 6.20562 11.9937 4.82513 13.4858 3.84845C14.9779 2.87178 16.7168 2.33911 18.4999 2.3125C20.9717 2.33693 23.333 3.33994 25.0668 5.10185C26.8005 6.86377 27.7654 9.24097 27.7499 11.7128C27.7509 13.8691 27.0168 15.9614 25.6687 17.6444L18.4999 27.75ZM18.4999 4.625C16.6405 4.64635 14.8656 5.40475 13.5648 6.73366C12.2641 8.06257 11.5439 9.85336 11.5624 11.7128C11.5712 13.4098 12.1817 15.0487 13.2852 16.3378L18.4999 23.7262L23.8534 16.1875C24.871 14.9173 25.4292 13.3403 25.4374 11.7128C25.4559 9.85336 24.7358 8.06257 23.435 6.73366C22.1343 5.40475 20.3594 4.64635 18.4999 4.625Z" fill="#0D99FF"/>
<path d="M18.5 12.7188C19.7772 12.7188 20.8125 11.6834 20.8125 10.4062C20.8125 9.12909 19.7772 8.09375 18.5 8.09375C17.2228 8.09375 16.1875 9.12909 16.1875 10.4062C16.1875 11.6834 17.2228 12.7188 18.5 12.7188Z" fill="#0D99FF"/>
<path d="M32.375 13.875H30.0625V16.1875H32.375V32.375H4.625V16.1875H6.9375V13.875H4.625C4.01169 13.875 3.42349 14.1186 2.98982 14.5523C2.55614 14.986 2.3125 15.5742 2.3125 16.1875V32.375C2.3125 32.9883 2.55614 33.5765 2.98982 34.0102C3.42349 34.4439 4.01169 34.6875 4.625 34.6875H32.375C32.9883 34.6875 33.5765 34.4439 34.0102 34.0102C34.4439 33.5765 34.6875 32.9883 34.6875 32.375V16.1875C34.6875 15.5742 34.4439 14.986 34.0102 14.5523C33.5765 14.1186 32.9883 13.875 32.375 13.875Z" fill="#0D99FF"/>
</svg>
