<svg width="54" height="54" viewBox="0 0 54 54" fill="none" xmlns="http://www.w3.org/2000/svg">
<path d="M3.375 39.6562C3.375 41.2227 3.99726 42.725 5.1049 43.8326C6.21254 44.9402 7.71482 45.5625 9.28125 45.5625H44.7188C46.2852 45.5625 47.7875 44.9402 48.8951 43.8326C50.0027 42.725 50.625 41.2227 50.625 39.6562V23.4141H3.375V39.6562ZM10.3359 31.6406C10.3359 30.8015 10.6693 29.9967 11.2627 29.4033C11.856 28.8099 12.6608 28.4766 13.5 28.4766H18.5625C19.4017 28.4766 20.2065 28.8099 20.7998 29.4033C21.3932 29.9967 21.7266 30.8015 21.7266 31.6406V33.75C21.7266 34.5892 21.3932 35.394 20.7998 35.9873C20.2065 36.5807 19.4017 36.9141 18.5625 36.9141H13.5C12.6608 36.9141 11.856 36.5807 11.2627 35.9873C10.6693 35.394 10.3359 34.5892 10.3359 33.75V31.6406ZM44.7188 8.4375H9.28125C7.71482 8.4375 6.21254 9.05976 5.1049 10.1674C3.99726 11.275 3.375 12.7773 3.375 14.3438V17.0859H50.625V14.3438C50.625 12.7773 50.0027 11.275 48.8951 10.1674C47.7875 9.05976 46.2852 8.4375 44.7188 8.4375Z" fill="#343030"/>
</svg>
