<svg width="35" height="35" viewBox="0 0 35 35" fill="none" xmlns="http://www.w3.org/2000/svg">
<path d="M17.5001 13.8535C25.5542 13.8535 32.0834 11.8948 32.0834 9.47852C32.0834 7.06227 25.5542 5.10352 17.5001 5.10352C9.44593 5.10352 2.91675 7.06227 2.91675 9.47852C2.91675 11.8948 9.44593 13.8535 17.5001 13.8535Z" stroke="#858585" stroke-width="1.5" stroke-linecap="round" stroke-linejoin="round"/>
<path d="M17.5001 25.5202C19.4397 25.5202 20.5232 26.6256 21.0278 27.5852C21.145 27.8135 21.1757 28.0765 21.1144 28.3257C21.053 28.5749 20.9037 28.7936 20.6939 28.9414C19.7484 29.5712 18.636 29.9033 17.5001 29.8952C16.2926 29.8952 15.1814 29.5379 14.3064 28.94C14.0966 28.7921 13.9472 28.5735 13.8859 28.3243C13.8245 28.0751 13.8552 27.8121 13.9724 27.5837C14.477 26.6285 15.5605 25.5202 17.5001 25.5202ZM17.5001 25.5202V13.8535" stroke="#858585" stroke-width="1.5" stroke-linecap="round" stroke-linejoin="round"/>
</svg>
