<svg width="12" height="16" viewBox="0 0 12 16" fill="none" xmlns="http://www.w3.org/2000/svg">
<path fill-rule="evenodd" clip-rule="evenodd" d="M0.75 14H11.25C11.4489 14 11.6397 14.079 11.7803 14.2197C11.921 14.3603 12 14.5511 12 14.75C12 14.9489 11.921 15.1397 11.7803 15.2803C11.6397 15.421 11.4489 15.5 11.25 15.5H0.75C0.551088 15.5 0.360322 15.421 0.21967 15.2803C0.0790178 15.1397 0 14.9489 0 14.75C0 14.5511 0.0790178 14.3603 0.21967 14.2197C0.360322 14.079 0.551088 14 0.75 14ZM0 10.25L7.5 2.75L9.75 5L2.25 12.5H0V10.25ZM8.25 2L9.75 0.5L12 2.75L10.4992 4.25075L8.25 2Z" fill="#656565"/>
</svg>
