<svg width="13" height="16" viewBox="0 0 13 16" fill="none" xmlns="http://www.w3.org/2000/svg">
<path fill-rule="evenodd" clip-rule="evenodd" d="M1.25 14H11.75C11.9489 14 12.1397 14.079 12.2803 14.2197C12.421 14.3603 12.5 14.5511 12.5 14.75C12.5 14.9489 12.421 15.1397 12.2803 15.2803C12.1397 15.421 11.9489 15.5 11.75 15.5H1.25C1.05109 15.5 0.860322 15.421 0.71967 15.2803C0.579018 15.1397 0.5 14.9489 0.5 14.75C0.5 14.5511 0.579018 14.3603 0.71967 14.2197C0.860322 14.079 1.05109 14 1.25 14ZM0.5 10.25L8 2.75L10.25 5L2.75 12.5H0.5V10.25ZM8.75 2L10.25 0.5L12.5 2.75L10.9992 4.25075L8.75 2Z" fill="#656565"/>
</svg>
