<svg width="37" height="37" viewBox="0 0 37 37" fill="none" xmlns="http://www.w3.org/2000/svg">
<path d="M15.4167 7.70833L18.5 4.625M12.3333 24.6667L24.6667 12.3333M18.5 32.375L21.5833 29.2917M25.4375 29.2917C26.4597 29.2917 27.44 28.8856 28.1628 28.1628C28.8856 27.44 29.2917 26.4597 29.2917 25.4375C29.2917 24.4153 28.8856 23.435 28.1628 22.7122C27.44 21.9894 26.4597 21.5833 25.4375 21.5833C24.4153 21.5833 23.435 21.9894 22.7122 22.7122C21.9894 23.435 21.5833 24.4153 21.5833 25.4375C21.5833 26.4597 21.9894 27.44 22.7122 28.1628C23.435 28.8856 24.4153 29.2917 25.4375 29.2917ZM11.5625 15.4167C12.5847 15.4167 13.565 15.0106 14.2878 14.2878C15.0106 13.565 15.4167 12.5847 15.4167 11.5625C15.4167 10.5403 15.0106 9.55999 14.2878 8.83719C13.565 8.1144 12.5847 7.70833 11.5625 7.70833C10.5403 7.70833 9.55999 8.1144 8.83719 8.83719C8.1144 9.55999 7.70833 10.5403 7.70833 11.5625C7.70833 12.5847 8.1144 13.565 8.83719 14.2878C9.55999 15.0106 10.5403 15.4167 11.5625 15.4167ZM8.47917 32.375C9.50136 32.375 10.4817 31.9689 11.2045 31.2461C11.9273 30.5233 12.3333 29.543 12.3333 28.5208C12.3333 27.4986 11.9273 26.5183 11.2045 25.7955C10.4817 25.0727 9.50136 24.6667 8.47917 24.6667C7.45698 24.6667 6.47666 25.0727 5.75386 25.7955C5.03106 26.5183 4.625 27.4986 4.625 28.5208C4.625 29.543 5.03106 30.5233 5.75386 31.2461C6.47666 31.9689 7.45698 32.375 8.47917 32.375ZM28.5208 12.3333C29.543 12.3333 30.5233 11.9273 31.2461 11.2045C31.9689 10.4817 32.375 9.50136 32.375 8.47917C32.375 7.45698 31.9689 6.47666 31.2461 5.75386C30.5233 5.03106 29.543 4.625 28.5208 4.625C27.4986 4.625 26.5183 5.03106 25.7955 5.75386C25.0727 6.47666 24.6667 7.45698 24.6667 8.47917C24.6667 9.50136 25.0727 10.4817 25.7955 11.2045C26.5183 11.9273 27.4986 12.3333 28.5208 12.3333Z" stroke="#0D99FF" stroke-width="2" stroke-linecap="round" stroke-linejoin="round"/>
</svg>
