<svg width="48" height="48" viewBox="0 0 48 48" fill="none" xmlns="http://www.w3.org/2000/svg">
<g clip-path="url(#clip0_2264_41)">
<path fill-rule="evenodd" clip-rule="evenodd" d="M17.658 29.0077C17.354 29.0257 17.184 29.0697 17.12 29.0977C16.486 29.3877 14.405 30.1427 13 30.6457V37.7457C13.72 37.7127 14.53 37.6847 14.985 37.7027C17.007 37.7837 18.534 38.2547 19.961 38.7077L20.087 38.7477C21.465 39.1857 22.751 39.5947 24.442 39.7227C24.961 39.7627 25.414 39.8077 25.838 39.8507C26.3418 39.9065 26.847 39.9496 27.353 39.9797C28.213 40.0237 28.873 39.9767 29.407 39.7807C30.067 39.5387 32.447 38.4257 34.837 37.2127C35.9403 36.6572 37.0313 36.0774 38.109 35.4737C38.5038 35.2528 38.8923 35.0207 39.274 34.7777C39.601 34.5647 39.759 34.4377 39.802 34.3937C39.98 34.2107 40.107 33.7057 39.874 33.2507C39.712 32.9337 39.26 32.4697 37.99 32.6797C36.52 32.9227 34.772 33.6398 33.055 34.3438C32.222 34.6858 31.393 35.0247 30.66 35.2697C29.956 35.5047 29.2 35.7037 28.552 35.6647C27.612 35.6077 25.956 35.3597 24.582 35.1357C23.7936 35.0071 23.0063 34.8725 22.22 34.7317L22.067 34.7048L22.014 34.6947L22.205 32.7107L27.565 32.7757L27.587 32.7737C27.623 32.7707 27.695 32.7617 27.799 32.7347C28.003 32.6817 28.339 32.5577 28.755 32.2597C28.899 32.1567 29.075 31.9777 29.234 31.7457C29.364 31.5557 29.461 31.3647 29.518 31.2027C28.7882 31.1739 28.0625 31.0785 27.35 30.9177C27.0064 30.8424 26.6655 30.755 26.328 30.6557L26.282 30.6417L19.716 29.1687H19.714C19.6096 29.1502 19.505 29.1336 19.4 29.1187C19.1284 29.0791 18.8556 29.0481 18.582 29.0257C18.2744 28.9994 17.9654 28.9933 17.657 29.0077M19.914 28.1877L20.097 27.2057L20.115 27.2087L26.803 28.7087L26.844 28.7227L26.856 28.7267L26.902 28.7407L27.09 28.7947C27.255 28.8407 27.493 28.9017 27.776 28.9637C28.35 29.0897 29.074 29.2057 29.75 29.2057C30.374 29.2057 31.019 29.4387 31.364 30.0707C31.66 30.6127 31.591 31.2087 31.48 31.6207C31.342 32.1347 31.056 32.6747 30.693 33.1337C31.2299 32.9276 31.7639 32.7143 32.295 32.4937L32.418 32.4437C34.041 31.7767 35.965 30.9867 37.662 30.7067C39.602 30.3857 41.013 31.0897 41.653 32.3387C42.223 33.4507 42.091 34.9097 41.233 35.7887C41.018 36.0097 40.69 36.2417 40.361 36.4548C39.9463 36.72 39.5241 36.9735 39.095 37.2147C37.9903 37.8334 36.872 38.4275 35.741 38.9967C33.37 40.1997 30.884 41.3697 30.094 41.6587C29.178 41.9937 28.194 42.0257 27.249 41.9767C26.6786 41.9413 26.1092 41.8929 25.541 41.8317C25.1248 41.7887 24.7081 41.7504 24.291 41.7167C22.363 41.5707 20.883 41.0997 19.521 40.6667L19.355 40.6137C17.948 40.1667 16.639 39.7707 14.904 39.7007C14.314 39.6777 12.847 39.7537 12.057 39.7997L11 39.8617V29.2347L11.665 28.9987C13.02 28.5167 15.647 27.5717 16.29 27.2787C16.692 27.0957 17.157 27.0337 17.542 27.0107C17.9404 26.9913 18.3396 26.9983 18.737 27.0317C19.1818 27.0666 19.6246 27.1226 20.064 27.1997L20.088 27.2037L20.094 27.2047H20.098L19.914 28.1877Z" fill="#0D99FF"/>
<path fill-rule="evenodd" clip-rule="evenodd" d="M6 28.9999C6 28.4695 6.21071 27.9607 6.58579 27.5857C6.96086 27.2106 7.46957 26.9999 8 26.9999H11C11.5304 26.9999 12.0391 27.2106 12.4142 27.5857C12.7893 27.9607 13 28.4695 13 28.9999V39.9959C13 40.5263 12.7893 41.035 12.4142 41.4101C12.0391 41.7852 11.5304 41.9959 11 41.9959H8C7.46957 41.9959 6.96086 41.7852 6.58579 41.4101C6.21071 41.035 6 40.5263 6 39.9959V28.9999ZM8 28.9999V39.9959H11V29.0009L8 28.9999ZM19.299 19.0789L19.319 19.0589C19.4394 18.9378 19.5068 18.7739 19.5063 18.6031C19.5059 18.4324 19.4376 18.2688 19.3165 18.1484C19.1954 18.028 19.0315 17.9606 18.8607 17.9611C18.69 17.9615 18.5264 18.0298 18.406 18.1509L16.446 20.1239C16.2599 20.3111 16.0387 20.4595 15.795 20.5608C15.5513 20.6621 15.2899 20.7141 15.026 20.7139H12.441C12.2705 20.7139 12.1069 20.7816 11.9863 20.9022C11.8657 21.0228 11.798 21.1864 11.798 21.3569C11.798 21.5274 11.8657 21.691 11.9863 21.8116C12.1069 21.9321 12.2705 21.9999 12.441 21.9999H15.201C15.6035 21.9999 16.002 21.9189 16.3725 21.7617C16.7431 21.6045 17.0782 21.3743 17.358 21.0849L19.299 19.0789ZM15.027 18.7129H12.44C11.7389 18.7129 11.0665 18.9914 10.5708 19.4872C10.075 19.9829 9.7965 20.6553 9.7965 21.3564C9.7965 22.0575 10.075 22.7299 10.5708 23.2256C11.0665 23.7214 11.7389 23.9999 12.44 23.9999H15.2C15.8708 24 16.5348 23.8651 17.1524 23.6033C17.77 23.3415 18.3286 22.9581 18.795 22.4759L20.735 20.4689C21.2294 19.9719 21.506 19.2988 21.5042 18.5978C21.5023 17.8968 21.222 17.2253 20.725 16.7309C20.228 16.2365 19.5549 15.9598 18.8539 15.9617C18.1529 15.9636 17.4814 16.2439 16.987 16.7409L15.027 18.7129ZM32.74 12.9979C33.0741 13.0073 33.4067 12.9497 33.7182 12.8284C34.0297 12.707 34.3136 12.5245 34.5533 12.2915C34.793 12.0585 34.9835 11.7798 35.1136 11.4719C35.2437 11.164 35.3107 10.8331 35.3107 10.4989C35.3107 10.1646 35.2437 9.83377 35.1136 9.52587C34.9835 9.21797 34.793 8.93928 34.5533 8.7063C34.3136 8.47331 34.0297 8.29075 33.7182 8.16941C33.4067 8.04808 33.0741 7.99043 32.74 7.99989C32.0895 8.01829 31.4717 8.28965 31.0181 8.7563C30.5645 9.22294 30.3107 9.84809 30.3107 10.4989C30.3107 11.1497 30.5645 11.7748 31.0181 12.2415C31.4717 12.7081 32.0895 12.9795 32.74 12.9979ZM37.24 10.4989C37.2526 11.0977 37.1456 11.693 36.9252 12.2499C36.7047 12.8068 36.3754 13.3141 35.9563 13.742C35.5373 14.17 35.0371 14.51 34.485 14.7421C33.9328 14.9742 33.3399 15.0938 32.741 15.0938C32.1421 15.0938 31.5492 14.9742 30.997 14.7421C30.4449 14.51 29.9447 14.17 29.5257 13.742C29.1066 13.3141 28.7773 12.8068 28.5568 12.2499C28.3364 11.693 28.2294 11.0977 28.242 10.4989C28.2668 9.3221 28.7517 8.20188 29.5927 7.37841C30.4338 6.55493 31.564 6.09375 32.741 6.09375C33.918 6.09375 35.0482 6.55493 35.8893 7.37841C36.7303 8.20188 37.2152 9.3221 37.24 10.4989ZM29.718 23.2939L29.791 23.3659C30.2316 23.7792 30.8171 24.0027 31.421 23.9879L31.46 23.9909C31.472 23.9936 31.485 23.9949 31.499 23.9949L34.636 23.9909C35.3433 23.9902 36.0214 23.7086 36.5211 23.208C37.0208 22.7073 37.3012 22.0287 37.3005 21.3214C37.2998 20.6141 37.0182 19.936 36.5176 19.4363C36.017 18.9366 35.3383 18.6562 34.631 18.6569H32.675C32.475 18.6569 31.025 17.1299 29.945 15.9599C29.5651 15.5465 29.1038 15.2162 28.5901 14.9897C28.0764 14.7633 27.5214 14.6455 26.96 14.6439H22.104L22.572 23.9939H25.655C26.279 23.992 26.8963 23.8659 27.471 23.6229C28.045 23.3779 28.925 22.6439 28.997 22.5719C29.065 22.5039 29.651 23.2129 29.713 23.2879L29.718 23.2939ZM26.686 21.7839L26.733 21.7589C26.7683 21.7389 26.8137 21.7116 26.869 21.6769C26.981 21.6069 27.106 21.5189 27.23 21.4269C27.3677 21.3244 27.5024 21.2181 27.634 21.1079C28.314 20.4709 29.119 20.5449 29.434 20.6119C29.762 20.6819 29.995 20.8179 30.08 20.8689C30.2239 20.9569 30.3588 21.0587 30.483 21.1729C30.631 21.3059 30.773 21.4599 30.868 21.5649C30.974 21.6819 31.073 21.7969 31.143 21.8799L31.183 21.9279C31.2038 21.9442 31.2267 21.9576 31.251 21.9679M26.686 21.7839C26.359 21.9229 26.008 21.9929 25.653 21.9949H24.474L24.207 16.6439H26.96C27.524 16.6439 28.075 16.8839 28.475 17.3169C29.02 17.9069 29.671 18.6009 30.219 19.1539C30.489 19.4269 30.757 19.6889 30.985 19.8929C31.095 19.9899 31.23 20.1069 31.373 20.2099C31.442 20.2599 31.554 20.3369 31.695 20.4109L31.701 20.4139C31.783 20.4579 32.161 20.6569 32.675 20.6569H34.631C34.8079 20.6566 34.9777 20.7266 35.1029 20.8515C35.2282 20.9764 35.2987 21.146 35.299 21.3229C35.2993 21.4998 35.2292 21.6695 35.1043 21.7948C34.9794 21.9201 34.8099 21.9906 34.633 21.9909L31.593 21.9939C31.5358 21.9894 31.4784 21.9874 31.421 21.9879H31.369C31.3287 21.9892 31.2886 21.9824 31.251 21.9679" fill="#0D99FF"/>
</g>
<defs>
<clipPath id="clip0_2264_41">
<rect width="48" height="48" fill="white"/>
</clipPath>
</defs>
</svg>
