<svg width="48" height="48" viewBox="0 0 48 48" fill="none" xmlns="http://www.w3.org/2000/svg">
<g clip-path="url(#clip0_2264_52)">
<path fill-rule="evenodd" clip-rule="evenodd" d="M12.9668 7.00366C12.9655 6.20836 13.28 5.44507 13.8412 4.88158C14.4025 4.31809 15.1645 4.00052 15.9598 3.99866L31.9328 3.97266C32.3268 3.972 32.717 4.04895 33.0812 4.19911C33.4455 4.34926 33.7765 4.56969 34.0556 4.8478C34.3346 5.12592 34.5562 5.45626 34.7075 5.81999C34.8589 6.18372 34.9371 6.57369 34.9378 6.96766L34.9928 40.9547C34.9939 41.7498 34.6792 42.5128 34.118 43.0761C33.5568 43.6394 32.7949 43.9568 31.9998 43.9587L16.0278 43.9847C15.6338 43.9853 15.2436 43.9084 14.8794 43.7582C14.5151 43.6081 14.1841 43.3876 13.905 43.1095C13.626 42.8314 13.4044 42.5011 13.2531 42.1373C13.1017 41.7736 13.0235 41.3836 13.0228 40.9897L12.9668 7.00366ZM14.9658 8.00066C14.9653 7.73802 15.0165 7.47784 15.1165 7.23499C15.2165 6.99214 15.3634 6.77136 15.5488 6.58527C15.7341 6.39919 15.9543 6.25143 16.1967 6.15043C16.4392 6.04944 16.6992 5.99719 16.9618 5.99666L30.9398 5.97466C31.4701 5.97386 31.9789 6.18368 32.3545 6.55797C32.7301 6.93227 32.9417 7.4404 32.9428 7.97066L32.9868 34.9607C32.9872 35.2233 32.9359 35.4835 32.8357 35.7263C32.7356 35.9691 32.5886 36.1898 32.4031 36.3758C32.2177 36.5618 31.9974 36.7094 31.7549 36.8103C31.5124 36.9111 31.2524 36.9633 30.9898 36.9637L17.0128 36.9867C16.4825 36.9875 15.9737 36.7776 15.5981 36.4034C15.2225 36.0291 15.0109 35.5209 15.0098 34.9907L14.9658 8.00066ZM24.0098 41.9737C24.2722 41.9731 24.532 41.9209 24.7743 41.82C25.0166 41.7191 25.2366 41.5714 25.4218 41.3855C25.607 41.1995 25.7538 40.9789 25.8537 40.7363C25.9537 40.4936 26.0048 40.2336 26.0043 39.9712C26.0038 39.7087 25.9516 39.4489 25.8506 39.2067C25.7497 38.9644 25.6021 38.7444 25.4161 38.5592C25.2302 38.374 25.0096 38.2272 24.7669 38.1273C24.5242 38.0273 24.2642 37.9761 24.0018 37.9767C23.4719 37.9777 22.9641 38.1892 22.5902 38.5647C22.2162 38.9401 22.0067 39.4488 22.0078 39.9787C22.0089 40.5086 22.2204 41.0163 22.5958 41.3903C22.9713 41.7642 23.4799 41.9747 24.0098 41.9737Z" fill="#0D99FF"/>
<path d="M23.1926 27.5413C21.6036 26.2253 20.2976 25.1433 19.3866 24.1253C18.4766 23.1103 17.9766 22.1753 17.9766 21.1583C17.9746 19.5023 19.3946 18.2013 21.2046 18.1993C22.2286 18.1993 23.2146 18.6353 23.8576 19.3243L23.9746 19.4503L24.0916 19.3243C24.7336 18.6343 25.7186 18.1963 26.7436 18.1953C28.5536 18.1933 29.9746 19.4923 29.9766 21.1483C29.9766 22.1663 29.4796 23.1013 28.5716 24.1183C27.6646 25.1353 26.3656 26.2163 24.7866 27.5313L24.7706 27.5453L23.9826 28.1973L23.1926 27.5413Z" fill="#0D99FF"/>
</g>
<defs>
<clipPath id="clip0_2264_52">
<rect width="48" height="48" fill="white"/>
</clipPath>
</defs>
</svg>
