<svg width="11" height="12" viewBox="0 0 11 12" fill="none" xmlns="http://www.w3.org/2000/svg">
<path d="M9.9 5.78519C9.9 4.55772 9.43643 3.38054 8.61127 2.51259C7.78611 1.64464 6.66695 1.15704 5.5 1.15704C4.33305 1.15704 3.21389 1.64464 2.38873 2.51259C1.56357 3.38054 1.1 4.55772 1.1 5.78519C1.1 7.01265 1.56357 8.18983 2.38873 9.05778C3.21389 9.92573 4.33305 10.4133 5.5 10.4133C6.66695 10.4133 7.78611 9.92573 8.61127 9.05778C9.43643 8.18983 9.9 7.01265 9.9 5.78519ZM5.5 0C8.53765 0 11 2.59003 11 5.78519C11 8.98034 8.53765 11.5704 5.5 11.5704C2.46235 11.5704 0 8.98034 0 5.78519C0 2.59003 2.46235 0 5.5 0ZM5.09194 5.20667C5.78212 5.20667 6.1367 4.38033 5.66115 3.88012C5.56096 3.77101 5.50553 3.62488 5.50678 3.47319C5.50803 3.32151 5.56588 3.17641 5.66785 3.06915C5.76982 2.96188 5.90777 2.90104 6.05198 2.89972C6.19619 2.89841 6.33512 2.95672 6.43885 3.0621L8.63885 5.37617C8.74196 5.48466 8.79988 5.63178 8.79988 5.78519C8.79988 5.93859 8.74196 6.08571 8.63885 6.1942L6.43885 8.50827C6.33512 8.61365 6.19619 8.67197 6.05198 8.67065C5.90777 8.66933 5.76982 8.60849 5.66785 8.50123C5.56588 8.39396 5.50803 8.24886 5.50678 8.09718C5.50553 7.94549 5.56096 7.79936 5.66115 7.69025C6.1367 7.19004 5.78212 6.3637 5.09194 6.3637H2.75C2.60413 6.3637 2.46424 6.30275 2.36109 6.19426C2.25795 6.08577 2.2 5.93862 2.2 5.78519C2.2 5.63175 2.25795 5.4846 2.36109 5.37611C2.46424 5.26762 2.60413 5.20667 2.75 5.20667H5.09194Z" fill="black"/>
</svg>
