<svg width="9" height="6" viewBox="0 0 9 6" fill="none" xmlns="http://www.w3.org/2000/svg">
<path d="M4.837 5.29444C4.78666 5.25857 4.74673 5.21594 4.71948 5.169C4.69223 5.12206 4.6782 5.07173 4.6782 5.0209C4.6782 4.97008 4.69223 4.91975 4.71948 4.87281C4.74673 4.82587 4.78666 4.78324 4.837 4.74737L7.15359 3.09037H0.539893C0.396705 3.09037 0.25938 3.04968 0.158131 2.97726C0.056881 2.90484 0 2.80661 0 2.70419C0 2.60178 0.056881 2.50355 0.158131 2.43113C0.25938 2.35871 0.396705 2.31802 0.539893 2.31802H7.15359L4.837 0.66038C4.73557 0.587833 4.67859 0.489439 4.67859 0.386842C4.67859 0.284245 4.73557 0.18585 4.837 0.113303C4.93842 0.0407565 5.07598 1.08103e-09 5.21942 0C5.36286 -1.08103e-09 5.50042 0.0407565 5.60184 0.113303L8.84121 2.43033C8.89154 2.46621 8.93147 2.50884 8.95872 2.55578C8.98597 2.60272 9 2.65305 9 2.70387C9 2.7547 8.98597 2.80502 8.95872 2.85196C8.93147 2.8989 8.89154 2.94153 8.84121 2.97741L5.60184 5.29444C5.55169 5.33044 5.49209 5.35901 5.42646 5.3785C5.36084 5.39799 5.29048 5.40802 5.21942 5.40802C5.14836 5.40802 5.078 5.39799 5.01238 5.3785C4.94675 5.35901 4.88715 5.33044 4.837 5.29444Z" fill="black"/>
</svg>
