<svg width="40" height="40" viewBox="0 0 40 40" fill="none" xmlns="http://www.w3.org/2000/svg">
<path d="M35 18.3346C35 27.5846 28.6 36.2346 20 38.3346C11.4 36.2346 5 27.5846 5 18.3346V8.33464L20 1.66797L35 8.33464V18.3346ZM20 35.0013C26.25 33.3346 31.6667 25.9013 31.6667 18.7013V10.5013L20 5.3013L8.33333 10.5013V18.7013C8.33333 25.9013 13.75 33.3346 20 35.0013ZM20 14.818C22.6667 14.818 24.8167 16.968 24.8167 19.6346C24.8167 22.3013 22.6667 24.4513 20 24.4513C17.3333 24.4513 15.1833 22.2846 15.1833 19.6346C15.1833 16.9846 17.35 14.818 20 14.818ZM20 10.0013L22.3 13.3346C21.6 13.0346 20.8333 12.8846 20 12.8846C18.75 12.8846 18.4167 13.0346 17.7 13.3346L20 10.0013ZM11.6667 14.818L15.6667 14.4846C15.1 15.0013 14.5667 15.568 14.1667 16.268C13.75 16.968 13.5 17.7013 13.3333 18.468L11.6667 14.818ZM11.6667 24.4513L13.3833 20.8346C13.5167 21.5513 13.7833 22.3013 14.1667 23.0013C14.5833 23.718 15.1 24.318 15.6667 24.8013L11.6667 24.4513ZM28.3333 14.818L26.6667 18.468C26.5 17.7013 26.2333 16.968 25.8333 16.268C25.4333 15.568 24.9167 15.0013 24.3333 14.468L28.3333 14.818ZM28.3333 24.4513L24.3333 24.7846C24.9 24.3013 25.4167 23.7013 25.8333 23.0013C26.2333 22.3013 26.4833 21.5513 26.6167 20.8346L28.3333 24.4513ZM20 29.2513L17.6833 25.9513C18.4 26.2013 19.1667 26.368 20 26.368C20.8333 26.368 21.5833 26.2013 22.2833 25.9513L20 29.2513Z" fill="#0D99FF"/>
</svg>
