<svg width="44" height="44" viewBox="0 0 44 44" fill="none" xmlns="http://www.w3.org/2000/svg">
<path d="M37.125 8.9375H30.9375V7.5625C30.9375 6.28615 30.4305 5.06207 29.528 4.15955C28.6254 3.25703 27.4014 2.75 26.125 2.75H17.875C16.5986 2.75 15.3746 3.25703 14.472 4.15955C13.5695 5.06207 13.0625 6.28615 13.0625 7.5625V8.9375H6.875C5.96332 8.9375 5.08898 9.29966 4.44432 9.94432C3.79966 10.589 3.4375 11.4633 3.4375 12.375V34.375C3.4375 35.2867 3.79966 36.161 4.44432 36.8057C5.08898 37.4503 5.96332 37.8125 6.875 37.8125H37.125C38.0367 37.8125 38.911 37.4503 39.5557 36.8057C40.2003 36.161 40.5625 35.2867 40.5625 34.375V12.375C40.5625 11.4633 40.2003 10.589 39.5557 9.94432C38.911 9.29966 38.0367 8.9375 37.125 8.9375ZM17.1875 7.5625C17.1875 7.38016 17.2599 7.2053 17.3889 7.07636C17.5178 6.94743 17.6927 6.875 17.875 6.875H26.125C26.3073 6.875 26.4822 6.94743 26.6111 7.07636C26.7401 7.2053 26.8125 7.38016 26.8125 7.5625V8.9375H17.1875V7.5625ZM36.4375 33.6875H7.5625V13.0625H36.4375V33.6875ZM28.1875 23.375C28.1875 23.922 27.9702 24.4466 27.5834 24.8334C27.1966 25.2202 26.672 25.4375 26.125 25.4375H24.0625V27.5C24.0625 28.047 23.8452 28.5716 23.4584 28.9584C23.0716 29.3452 22.547 29.5625 22 29.5625C21.453 29.5625 20.9284 29.3452 20.5416 28.9584C20.1548 28.5716 19.9375 28.047 19.9375 27.5V25.4375H17.875C17.328 25.4375 16.8034 25.2202 16.4166 24.8334C16.0298 24.4466 15.8125 23.922 15.8125 23.375C15.8125 22.828 16.0298 22.3034 16.4166 21.9166C16.8034 21.5298 17.328 21.3125 17.875 21.3125H19.9375V19.25C19.9375 18.703 20.1548 18.1784 20.5416 17.7916C20.9284 17.4048 21.453 17.1875 22 17.1875C22.547 17.1875 23.0716 17.4048 23.4584 17.7916C23.8452 18.1784 24.0625 18.703 24.0625 19.25V21.3125H26.125C26.672 21.3125 27.1966 21.5298 27.5834 21.9166C27.9702 22.3034 28.1875 22.828 28.1875 23.375Z" fill="#0D99FF"/>
</svg>
