<svg width="52" height="52" viewBox="0 0 52 52" fill="none" xmlns="http://www.w3.org/2000/svg">
<path d="M34.6667 23.8333V17.3333H28.1667V13H34.6667V6.5H39V13H45.5V17.3333H39V23.8333H34.6667ZM43.225 45.5C38.7111 45.5 34.2514 44.5163 29.8458 42.549C25.4403 40.5817 21.4319 37.7917 17.8208 34.1792C14.2097 30.5666 11.4205 26.5583 9.45317 22.1542C7.48583 17.7501 6.50144 13.2903 6.5 8.775C6.5 8.125 6.71667 7.58333 7.15 7.15C7.58333 6.71667 8.125 6.5 8.775 6.5H17.55C18.0556 6.5 18.5069 6.67189 18.9042 7.01567C19.3014 7.35944 19.5361 7.76533 19.6083 8.23333L21.0167 15.8167C21.0889 16.3944 21.0708 16.8819 20.9625 17.2792C20.8542 17.6764 20.6556 18.0194 20.3667 18.3083L15.1125 23.6167C15.8347 24.9528 16.692 26.2434 17.6843 27.4885C18.6767 28.7336 19.7694 29.9347 20.9625 31.0917C22.0819 32.2111 23.2556 33.2497 24.4833 34.2073C25.7111 35.165 27.0111 36.0403 28.3833 36.8333L33.475 31.7417C33.8 31.4167 34.2247 31.1733 34.749 31.0115C35.2733 30.8497 35.7876 30.8042 36.2917 30.875L43.7667 32.3917C44.2722 32.5361 44.6875 32.7983 45.0125 33.1782C45.3375 33.5581 45.5 33.982 45.5 34.45V43.225C45.5 43.875 45.2833 44.4167 44.85 44.85C44.4167 45.2833 43.875 45.5 43.225 45.5Z" fill="#343030"/>
</svg>
