<svg width="55" height="55" viewBox="0 0 55 55" fill="none" xmlns="http://www.w3.org/2000/svg">
<path d="M49.0241 40.9297C48.1337 40.0532 37.3451 35.88 35.3875 35.0929C33.4401 34.3194 32.6633 32.1761 32.6633 32.1761C32.6633 32.1761 31.7867 32.6608 31.7867 31.2996C31.7867 29.9366 32.6633 32.1761 33.5398 26.9202C33.5398 26.9202 35.9719 26.2379 35.4889 20.5952H34.9045C34.9045 20.5952 36.3655 14.5624 34.9045 12.5205C33.4384 10.4786 32.8644 9.11739 29.6451 8.14114C26.4311 7.1666 27.5998 7.36082 25.2658 7.46051C22.9283 7.55848 20.9826 8.82348 20.9826 9.50238C20.9826 9.50238 19.5217 9.60035 18.9408 10.1847C18.3564 10.7691 17.3836 13.4916 17.3836 14.1722C17.3836 14.8529 17.87 19.4316 18.3564 20.401L17.7772 20.59C17.2908 26.2344 19.7228 26.9185 19.7228 26.9185C20.5994 32.1744 21.4759 29.9349 21.4759 31.2979C21.4759 32.6591 20.5994 32.1744 20.5994 32.1744C20.5994 32.1744 19.8208 34.316 17.8751 35.0911C15.9295 35.8697 5.12889 40.0532 4.25061 40.928C3.37405 41.8218 3.47202 45.9055 3.47202 45.9055H49.7992C49.7992 45.9055 49.9075 41.8183 49.0206 40.9263L49.0241 40.9297ZM38.1358 44.7969H30.2948V42.6485H38.1358V44.7969Z" fill="#0D99FF"/>
</svg>
