<svg width="43" height="43" viewBox="0 0 43 43" fill="none" xmlns="http://www.w3.org/2000/svg">
<path d="M29.5618 5.375C35.0049 5.375 39.416 9.85417 39.416 16.125C39.416 28.6667 25.9785 35.8333 21.4993 38.5208C17.9572 36.3959 8.80897 31.467 5.13964 23.2935L1.79102 23.2917V19.7083H3.95893C3.70841 18.5304 3.5823 17.3293 3.58268 16.125C3.58268 9.85417 8.06185 5.375 13.4368 5.375C16.7693 5.375 19.7077 7.16667 21.4993 8.95833C23.291 7.16667 26.2293 5.375 29.5618 5.375ZM29.5618 8.95833C27.634 8.95833 25.5485 9.97958 24.0328 11.4917L21.4993 14.0252L18.9659 11.4917C17.4502 9.97958 15.3647 8.95833 13.4368 8.95833C9.96102 8.95833 7.16602 11.9271 7.16602 16.125C7.16602 17.3529 7.32547 18.5473 7.64439 19.7083H11.5269L15.2285 13.5378L20.6035 22.4962L22.2769 19.7083H30.4577V23.2917H24.3051L20.6035 29.4622L15.2285 20.5038L13.5551 23.2917H9.15118C10.5666 25.7534 12.7076 28.0718 15.4883 30.2845C16.8231 31.347 18.2475 32.3378 19.8259 33.3304C20.3616 33.669 20.892 33.9933 21.4993 34.3552C22.1067 33.9933 22.6371 33.669 23.1728 33.3322C24.6726 32.3963 26.1201 31.3789 27.5086 30.2845C32.8496 26.0383 35.8327 21.3979 35.8327 16.125C35.8327 11.8967 33.0789 8.95833 29.5618 8.95833Z" fill="#0D99FF"/>
</svg>
