<svg width="34" height="34" viewBox="0 0 34 34" fill="none" xmlns="http://www.w3.org/2000/svg">
<g clip-path="url(#clip0_2264_57)">
<path d="M31.875 3.18394L23.3676 3.18397V1.06641C23.3676 0.479375 22.8921 0.00390625 22.3051 0.00390625C21.718 0.00390625 21.2426 0.479375 21.2426 1.06641V3.18344H12.7426V1.06641C12.7426 0.479375 12.2671 0.00390625 11.6801 0.00390625C11.093 0.00390625 10.6176 0.479375 10.6176 1.06641V3.18344H2.125C0.951469 3.18344 0 4.13491 0 5.30844V31.8709C0 33.0444 0.951469 33.9959 2.125 33.9959H31.875C33.0485 33.9959 34 33.0444 34 31.8709V5.30844C34 4.1354 33.0485 3.18394 31.875 3.18394ZM31.875 31.8709H2.125V5.30844H10.6176V6.37891C10.6176 6.9659 11.093 7.44141 11.6801 7.44141C12.2671 7.44141 12.7426 6.9659 12.7426 6.37891V5.30897H21.2426V6.37944C21.2426 6.96647 21.718 7.44194 22.3051 7.44194C22.8921 7.44194 23.3676 6.96647 23.3676 6.37944V5.30897H31.875V31.8709ZM24.4375 16.9964H26.5625C27.149 16.9964 27.625 16.5204 27.625 15.9339V13.8089C27.625 13.2224 27.149 12.7464 26.5625 12.7464H24.4375C23.851 12.7464 23.375 13.2224 23.375 13.8089V15.9339C23.375 16.5204 23.851 16.9964 24.4375 16.9964ZM24.4375 25.4959H26.5625C27.149 25.4959 27.625 25.0204 27.625 24.4334V22.3084C27.625 21.7219 27.149 21.2459 26.5625 21.2459H24.4375C23.851 21.2459 23.375 21.7219 23.375 22.3084V24.4334C23.375 25.021 23.851 25.4959 24.4375 25.4959ZM18.0625 21.2459H15.9375C15.351 21.2459 14.875 21.7219 14.875 22.3084V24.4334C14.875 25.0204 15.351 25.4959 15.9375 25.4959H18.0625C18.649 25.4959 19.125 25.0204 19.125 24.4334V22.3084C19.125 21.7224 18.649 21.2459 18.0625 21.2459ZM18.0625 12.7464H15.9375C15.351 12.7464 14.875 13.2224 14.875 13.8089V15.9339C14.875 16.5204 15.351 16.9964 15.9375 16.9964H18.0625C18.649 16.9964 19.125 16.5204 19.125 15.9339V13.8089C19.125 13.2219 18.649 12.7464 18.0625 12.7464ZM9.5625 12.7464H7.4375C6.851 12.7464 6.375 13.2224 6.375 13.8089V15.9339C6.375 16.5204 6.851 16.9964 7.4375 16.9964H9.5625C10.149 16.9964 10.625 16.5204 10.625 15.9339V13.8089C10.625 13.2219 10.149 12.7464 9.5625 12.7464ZM9.5625 21.2459H7.4375C6.851 21.2459 6.375 21.7219 6.375 22.3084V24.4334C6.375 25.0204 6.851 25.4959 7.4375 25.4959H9.5625C10.149 25.4959 10.625 25.0204 10.625 24.4334V22.3084C10.625 21.7224 10.149 21.2459 9.5625 21.2459Z" fill="#0D99FF"/>
</g>
<defs>
<clipPath id="clip0_2264_57">
<rect width="34" height="34" fill="white"/>
</clipPath>
</defs>
</svg>
