<svg width="46" height="46" viewBox="0 0 46 46" fill="none" xmlns="http://www.w3.org/2000/svg">
<path d="M22.9996 0.777344C18.6044 0.777344 14.308 2.08065 10.6536 4.52246C6.99914 6.96427 4.15087 10.4349 2.46892 14.4955C0.786972 18.5561 0.346898 23.0242 1.20435 27.3349C2.0618 31.6456 4.17826 35.6052 7.28609 38.7131C10.3939 41.8209 14.3535 43.9373 18.6642 44.7948C22.9749 45.6522 27.4431 45.2122 31.5037 43.5302C35.5642 41.8483 39.0349 39 41.4767 35.3456C43.9185 31.6911 45.2218 27.3947 45.2218 22.9996C45.2218 17.1059 42.8805 11.4536 38.7131 7.28608C34.5456 3.11861 28.8933 0.777344 22.9996 0.777344ZM31.6107 30.194C31.5098 30.3467 31.3797 30.4779 31.2279 30.5802C31.0761 30.6824 30.9057 30.7536 30.7262 30.7898C30.5468 30.8259 30.3621 30.8262 30.1825 30.7907C30.003 30.7552 29.8323 30.6846 29.6801 30.5829L21.4857 25.0273V12.9301C21.4857 12.5618 21.632 12.2085 21.8925 11.948C22.1529 11.6876 22.5062 11.5412 22.8746 11.5412C23.2429 11.5412 23.5962 11.6876 23.8567 11.948C24.1171 12.2085 24.2635 12.5618 24.2635 12.9301V23.5551L31.2079 28.2635C31.3617 28.3633 31.4942 28.4925 31.5978 28.6438C31.7014 28.7951 31.774 28.9654 31.8114 29.1448C31.8489 29.3243 31.8504 29.5094 31.816 29.6895C31.7815 29.8696 31.7117 30.041 31.6107 30.194ZM31.1246 9.43012C29.1704 8.25222 26.9844 7.51102 24.7168 7.25736C22.4492 7.0037 20.1536 7.24359 17.9874 7.96057C15.8212 8.67756 13.8357 9.85466 12.1673 11.4111C10.4988 12.9676 9.18674 14.8666 8.32117 16.9778C7.4556 19.089 7.05699 21.3625 7.15269 23.6422C7.24838 25.922 7.83612 28.154 8.87557 30.1853C9.91502 32.2165 11.3816 33.9989 13.1746 35.41C14.9677 36.8212 17.0448 37.8278 19.2635 38.3607L18.8329 40.5412C16.2884 39.949 13.9027 38.8116 11.8405 37.2076C9.77838 35.6036 8.08887 33.5712 6.88865 31.2506C5.68842 28.9301 5.00607 26.3768 4.8887 23.7669C4.77133 21.157 5.22174 18.5527 6.20883 16.1338C7.19592 13.7149 8.69618 11.5391 10.606 9.75646C12.5159 7.97383 14.7899 6.62689 17.271 5.80863C19.752 4.99038 22.3812 4.72029 24.9768 5.01703C27.5724 5.31376 30.0727 6.17024 32.3051 7.52734L31.1246 9.43012Z" fill="#343030"/>
</svg>
