<svg width="68" height="68" viewBox="0 0 68 68" fill="none" xmlns="http://www.w3.org/2000/svg">
<path d="M24.4375 12.75C22.4674 12.7578 20.5802 13.5439 19.187 14.937C17.7939 16.3302 17.0078 18.2174 17 20.1875C17 24.2718 20.3533 27.625 24.4375 27.625C28.5217 27.625 31.875 24.2718 31.875 20.1875C31.875 16.1032 28.5217 12.75 24.4375 12.75ZM43.5625 12.75C41.5924 12.7578 39.7052 13.5439 38.312 14.937C36.9189 16.3302 36.1328 18.2174 36.125 20.1875C36.125 24.2718 39.4782 27.625 43.5625 27.625C47.6468 27.625 51 24.2718 51 20.1875C51 16.1032 47.6468 12.75 43.5625 12.75ZM24.4375 17C26.2225 17 27.625 18.4025 27.625 20.1875C27.625 21.9725 26.2225 23.375 24.4375 23.375C22.6525 23.375 21.25 21.9725 21.25 20.1875C21.25 18.4025 22.6525 17 24.4375 17ZM43.5625 17C45.3475 17 46.75 18.4025 46.75 20.1875C46.75 21.9725 45.3475 23.375 43.5625 23.375C41.7775 23.375 40.375 21.9725 40.375 20.1875C40.375 18.4025 41.7775 17 43.5625 17ZM14.875 25.5C10.2 25.5 6.375 29.325 6.375 34C6.375 36.3651 7.38862 38.4986 8.96537 40.0435C7.51894 41.0196 6.33313 42.3345 5.51126 43.8738C4.68939 45.4131 4.25639 47.13 4.25 48.875H8.5C8.5 45.3305 11.3305 42.5 14.875 42.5C18.4195 42.5 21.25 45.3305 21.25 48.875H25.5C25.4936 47.13 25.0606 45.4131 24.2387 43.8738C23.4169 42.3345 22.2311 41.0196 20.7846 40.0435C22.3614 38.4986 23.375 36.3673 23.375 34C23.375 29.325 19.55 25.5 14.875 25.5ZM25.5 48.875C24.1719 50.6515 23.375 52.8849 23.375 55.25H27.625C27.625 51.7055 30.4555 48.875 34 48.875C37.5445 48.875 40.375 51.7055 40.375 55.25H44.625C44.6213 52.9517 43.8761 50.7159 42.5 48.875C41.7775 47.9124 40.9062 47.09 39.9096 46.4185C41.4864 44.8736 42.5 42.7423 42.5 40.375C42.5 35.7 38.675 31.875 34 31.875C29.325 31.875 25.5 35.7 25.5 40.375C25.5 42.7401 26.5136 44.8736 28.0904 46.4185C27.0956 47.0867 26.22 47.9171 25.5 48.875ZM42.5 48.875H46.75C46.75 45.3305 49.5805 42.5 53.125 42.5C56.6695 42.5 59.5 45.3305 59.5 48.875H63.75C63.7436 47.13 63.3106 45.4131 62.4887 43.8738C61.6669 42.3345 60.4811 41.0196 59.0346 40.0435C60.6114 38.4986 61.625 36.3673 61.625 34C61.625 29.325 57.8 25.5 53.125 25.5C48.45 25.5 44.625 29.325 44.625 34C44.625 36.3651 45.6386 38.4986 47.2154 40.0435C45.7689 41.0196 44.5831 42.3345 43.7613 43.8738C42.9394 45.4131 42.5064 47.13 42.5 48.875ZM14.875 29.75C17.2486 29.75 19.125 31.6264 19.125 34C19.125 36.3736 17.2486 38.25 14.875 38.25C12.5014 38.25 10.625 36.3736 10.625 34C10.625 31.6264 12.5014 29.75 14.875 29.75ZM53.125 29.75C55.4986 29.75 57.375 31.6264 57.375 34C57.375 36.3736 55.4986 38.25 53.125 38.25C50.7514 38.25 48.875 36.3736 48.875 34C48.875 31.6264 50.7514 29.75 53.125 29.75ZM34 36.125C36.3736 36.125 38.25 38.0014 38.25 40.375C38.25 42.7486 36.3736 44.625 34 44.625C31.6264 44.625 29.75 42.7486 29.75 40.375C29.75 38.0014 31.6264 36.125 34 36.125Z" fill="#343030"/>
</svg>
