<svg width="31" height="31" viewBox="0 0 31 31" fill="none" xmlns="http://www.w3.org/2000/svg">
<path d="M8.49653 19.9982C6.66883 21.0858 1.87674 23.3075 4.79591 26.0884C6.22062 27.446 7.80808 28.4173 9.8037 28.4173H21.1936C23.1905 28.4173 24.778 27.446 26.2027 26.0884C29.1219 23.3075 24.3298 21.0858 22.5021 19.9982C20.3809 18.7451 17.9623 18.0841 15.4987 18.0841C13.035 18.0841 10.6177 18.7451 8.49653 19.9982ZM21.3125 8.39648C21.3125 9.93806 20.7001 11.4165 19.61 12.5065C18.52 13.5966 17.0415 14.209 15.5 14.209C13.9584 14.209 12.4799 13.5966 11.3899 12.5065C10.2998 11.4165 9.68745 9.93806 9.68745 8.39648C9.68745 6.85491 10.2998 5.37648 11.3899 4.28643C12.4799 3.19637 13.9584 2.58398 15.5 2.58398C17.0415 2.58398 18.52 3.19637 19.61 4.28643C20.7001 5.37648 21.3125 6.85491 21.3125 8.39648Z" stroke="#858585" stroke-width="1.5" stroke-linecap="round" stroke-linejoin="round"/>
</svg>
