<svg width="13" height="13" viewBox="0 0 13 13" fill="none" xmlns="http://www.w3.org/2000/svg">
<path d="M6.1875 12.4781C5.00081 12.4781 3.84078 12.1263 2.85408 11.467C1.86739 10.8077 1.09835 9.87061 0.644225 8.77425C0.1901 7.67789 0.0712797 6.4715 0.302791 5.30761C0.534302 4.14372 1.10575 3.07463 1.94486 2.23551C2.78398 1.3964 3.85307 0.824952 5.01696 0.59344C6.18085 0.361929 7.38725 0.480749 8.4836 0.934875C9.57996 1.389 10.517 2.15804 11.1763 3.14473C11.8356 4.13142 12.1875 5.29146 12.1875 6.47815C12.1875 8.06945 11.5554 9.59557 10.4301 10.7208C9.30492 11.846 7.7788 12.4781 6.1875 12.4781ZM6.1875 1.33529C5.17034 1.33529 4.17602 1.63692 3.33028 2.20202C2.48455 2.76713 1.82537 3.57033 1.43612 4.51007C1.04687 5.4498 0.945026 6.48386 1.14346 7.48147C1.3419 8.47909 1.83171 9.39546 2.55095 10.1147C3.27019 10.8339 4.18656 11.3237 5.18418 11.5222C6.1818 11.7206 7.21585 11.6188 8.15559 11.2295C9.09532 10.8403 9.89853 10.1811 10.4636 9.33537C11.0287 8.48963 11.3304 7.49531 11.3304 6.47815C11.3304 5.11418 10.7885 3.80608 9.82405 2.8416C8.85958 1.87713 7.55147 1.33529 6.1875 1.33529Z" fill="#242424"/>
<path d="M8.1545 9.04954L5.75879 6.65383V2.62097H6.61593V6.29811L8.75879 8.44526L8.1545 9.04954Z" fill="#242424"/>
</svg>
