<svg width="85" height="19" viewBox="0 0 85 19" fill="none" xmlns="http://www.w3.org/2000/svg">
<path d="M4.184 18H0.176V-1.43051e-06H6.128L8.312 10.632H8.36L10.616 -1.43051e-06H16.52V18H12.488L12.92 3.888H12.872L9.896 18H6.752L3.848 3.888H3.8L4.184 18ZM18.6877 4.56H22.2397V6.6H22.2877C22.7197 5.16 23.6557 4.176 25.2397 4.176V8.496C24.8557 8.424 24.4717 8.4 24.0877 8.4C23.0077 8.4 22.5757 8.616 22.5037 9.72V18H18.6877V4.56ZM35.8479 8.544H32.2719C32.2239 8.088 32.2239 7.632 32.0559 7.272C31.9119 6.936 31.6239 6.696 30.9999 6.696C30.2559 6.696 29.7279 7.032 29.7279 7.824C29.7279 8.544 30.3279 8.904 30.9039 9.192C33.3759 10.32 36.0399 10.968 36.0399 14.16C36.0399 17.16 33.7599 18.432 30.9519 18.432C27.9279 18.432 25.8159 17.136 25.9599 13.896H29.6079C29.5839 14.352 29.6319 14.856 29.8479 15.264C30.0399 15.648 30.3999 15.912 30.9759 15.912C31.7919 15.912 32.3439 15.504 32.3439 14.64C32.3439 14.232 32.1519 13.848 31.8399 13.608C30.3039 12.792 28.1679 12.216 26.9679 10.848C26.3199 10.104 26.0079 9.312 26.0079 8.328C26.0079 5.424 28.3119 4.176 30.9759 4.176C33.7599 4.176 35.9919 5.568 35.8479 8.544ZM52.6079 18H43.2239V-1.43051e-06H47.4479V14.4H52.6079V18ZM60.224 13.584V11.472C59.456 11.88 58.784 12.096 58.304 12.456C57.824 12.792 57.416 13.272 57.416 14.184C57.416 15.024 57.92 15.624 58.832 15.624C59.96 15.624 60.2 14.448 60.224 13.584ZM60.632 18L60.368 16.8C59.408 17.856 58.592 18.432 57.08 18.432C54.92 18.432 53.576 16.968 53.576 14.832C53.576 11.784 55.232 10.824 56.912 10.272C58.568 9.72 60.224 9.552 60.224 8.112C60.224 7.368 59.792 6.72 59.024 6.72C57.632 6.72 57.632 7.68 57.56 8.808H53.744C53.672 7.128 54.176 5.976 55.112 5.232C56.048 4.488 57.368 4.176 58.904 4.176C62.672 4.176 64.04 5.328 64.04 8.28V16.512C64.04 17.016 64.184 17.52 64.352 18H60.632ZM66.008 4.56H69.56V6.6H69.608C70.04 5.16 70.976 4.176 72.56 4.176V8.496C72.176 8.424 71.792 8.4 71.408 8.4C70.328 8.4 69.896 8.616 69.824 9.72V18H66.008V4.56ZM80.2162 13.584V11.472C79.4482 11.88 78.7762 12.096 78.2962 12.456C77.8162 12.792 77.4082 13.272 77.4082 14.184C77.4082 15.024 77.9122 15.624 78.8242 15.624C79.9522 15.624 80.1922 14.448 80.2162 13.584ZM80.6242 18L80.3602 16.8C79.4002 17.856 78.5842 18.432 77.0722 18.432C74.9122 18.432 73.5682 16.968 73.5682 14.832C73.5682 11.784 75.2242 10.824 76.9042 10.272C78.5602 9.72 80.2162 9.552 80.2162 8.112C80.2162 7.368 79.7842 6.72 79.0162 6.72C77.6242 6.72 77.6242 7.68 77.5522 8.808H73.7362C73.6642 7.128 74.1682 5.976 75.1042 5.232C76.0402 4.488 77.3602 4.176 78.8962 4.176C82.6642 4.176 84.0322 5.328 84.0322 8.28V16.512C84.0322 17.016 84.1762 17.52 84.3442 18H80.6242Z" fill="url(#paint0_linear_2859_988)"/>
<defs>
<linearGradient id="paint0_linear_2859_988" x1="0.0375987" y1="16.768" x2="83.1928" y2="-3.85237" gradientUnits="userSpaceOnUse">
<stop stop-color="#1495D5"/>
<stop offset="1" stop-color="#F36185"/>
</linearGradient>
</defs>
</svg>
