<svg width="20" height="20" viewBox="0 0 20 20" fill="none" xmlns="http://www.w3.org/2000/svg">
<path d="M10 0C11.3261 0 12.5979 0.526784 13.5355 1.46447C14.4732 2.40215 15 3.67392 15 5C15 6.32608 14.4732 7.59785 13.5355 8.53553C12.5979 9.47322 11.3261 10 10 10C8.67392 10 7.40215 9.47322 6.46447 8.53553C5.52678 7.59785 5 6.32608 5 5C5 3.67392 5.52678 2.40215 6.46447 1.46447C7.40215 0.526784 8.67392 0 10 0ZM10 2.5C9.33696 2.5 8.70107 2.76339 8.23223 3.23223C7.76339 3.70107 7.5 4.33696 7.5 5C7.5 5.66304 7.76339 6.29893 8.23223 6.76777C8.70107 7.23661 9.33696 7.5 10 7.5C10.663 7.5 11.2989 7.23661 11.7678 6.76777C12.2366 6.29893 12.5 5.66304 12.5 5C12.5 4.33696 12.2366 3.70107 11.7678 3.23223C11.2989 2.76339 10.663 2.5 10 2.5ZM10 11.25C13.3375 11.25 20 12.9125 20 16.25V20H0V16.25C0 12.9125 6.6625 11.25 10 11.25ZM10 13.625C6.2875 13.625 2.375 15.45 2.375 16.25V17.625H17.625V16.25C17.625 15.45 13.7125 13.625 10 13.625Z" fill="#C4C4C4"/>
</svg>
